# xmcd
#
# Track frame offsets:
#	150
#	12967
#	27317
#	41222
#	53800
#	66847
#	79812
#	92342
#	103775
#	117685
#	129662
#	144570
#	157687
#	170180
#	183105
#	197235
#	213215
#	225310
#	237940
#	249740
#
# Disc length: 3498 seconds
#
# Revision: 0
# Processed by: cddbd v1.5.1PL0 Copyright (c) Steve Scherf et al.
# Submitted via: dBpowerAMP V4.0
#
DISCID=130da814
DTITLE=Sonny Terry - American Blues Legend
DYEAR=1999
DGENRE=Blues
TTITLE0=Whoopin' the Blues
TTITLE1=All Alone blues
TTITLE2=Leavin' Blues
TTITLE3=Worried Man Blues
TTITLE4=Riff and Harmonica Jump
TTITLE5=Screamin' and Cryin' Blues
TTITLE6=Beer Garden Blues
TTITLE7=Harmonica Rag
TTITLE8=Custard Pie Blues
TTITLE9=Crow Jane Blues
TTITLE10=Hot-Headed Woman
TTITLE11=Early Morning Blues
TTITLE12=Run Away Woman
TTITLE13=Shake Down
TTITLE14=Sweet Woman
TTITLE15=Lonesome Train
TTITLE16=Harmonica Blues
TTITLE17=Train Whistle Blues
TTITLE18=Harmonica and Washboard Breakdown
TTITLE19=Forty-Four Whistle Blues
EXTD=
EXTT0=
EXTT1=
EXTT2=
EXTT3=
EXTT4=
EXTT5=
EXTT6=
EXTT7=
EXTT8=
EXTT9=
EXTT10=
EXTT11=
EXTT12=
EXTT13=
EXTT14=
EXTT15=
EXTT16=
EXTT17=
EXTT18=
EXTT19=
PLAYORDER=
